<?xml version="1.0" encoding="utf-8"?>
<!-- Generator: Adobe Illustrator 25.4.1, SVG Export Plug-In . SVG Version: 6.00 Build 0)  -->
<svg version="1.1" id="Ebene_1" xmlns="http://www.w3.org/2000/svg" xmlns:xlink="http://www.w3.org/1999/xlink" x="0px" y="0px"
	 viewBox="0 0 953.13 283.46" style="enable-background:new 0 0 953.13 283.46;" xml:space="preserve">
<style type="text/css">
	.st0{fill:#FFFFFF;}
	.st1{fill:none;}
</style>
<path class="st0" d="M917.08,0H65.77C29.5,0,0,29.5,0,65.77v98.35c0,18.93,4.37,37.18,12.64,53.62
	c5.66,11.24,13.15,21.63,22.32,30.8c9.15,9.15,19.51,16.62,30.73,22.28c15.52,7.82,32.67,12.17,50.47,12.64h800.91
	c19.88,0,36.05-16.17,36.05-36.04V36.05C953.13,16.17,936.96,0,917.08,0 M940.48,247.42c0,12.9-10.5,23.4-23.4,23.4h-794.7
	c-1,0.02-1.99,0.04-2.99,0.04c-1,0-1.99-0.02-2.99-0.04C59.28,269.25,13.37,222.82,12.64,165.5c-0.01-0.46-0.01-0.92-0.01-1.38
	c0-0.46,0-0.92,0.01-1.38v-42c-0.01-0.46-0.01-0.92-0.01-1.38c0-0.46,0-0.92,0.01-1.38V65.73c0.02-29.25,23.8-53.04,53.04-53.08
	h50.71c1-0.02,1.99-0.04,2.99-0.04c1,0,1.99,0.02,2.99,0.04h794.7c12.91,0,23.4,10.5,23.4,23.4V247.42z"/>
<path class="st0" d="M199.15,225.49c0.04,0.06,0.08,0.11,0.12,0.16c-0.43-4.67-0.31-9.49,0.34-14.41
	c2.04-15.45,11.35-37.7,20.26-54.08c5-10.01,8.83-17.97,15.51-25.16c-32.36,27.26-39.88,63.02-39.88,63.02s-0.49-23.25,9.4-42.54
	c-23.75,21.27-20.28,58.87-20.28,58.87s-21.77-35.12-27.21-54.91s5.44-43.53,30.18-45.02c5.54-0.33,11.19-1.54,16.81-3.36
	c-14.33,2.97-25.9,0.49-29.83,3.9c-5.53-3.69-9.92-12.1-12.98-20.73l-82.58,20.57c0,0-1.15-0.5-2.06-3.3
	c-0.41,2.06,0.74,3.46,0.74,3.46l-25.4,6.35l1.98-3.96c0,0-5.44,7.42-8.66,12.12c-3.21,4.7-5.85,8.49-7.01,8.25
	c-0.98-0.21-2.3-1.91-2.79-4.63V164c0,46.27,37.51,83.78,83.78,83.78h86.53c-3.58-6.28-5.78-13.09-6.67-20.27
	C199.35,226.84,199.24,226.17,199.15,225.49"/>
<path class="st0" d="M46.31,114.72c6.36-4.43,12.75-3.34,12.75-3.34l100.59-26.25c-0.51-1.78-0.96-3.52-1.35-5.18
	c-2.67-0.27-25.51-11.48-14.71-28.83c9.01-14.47,24.31-9.84,24.31-9.84s1.19-4.7,12.79-6.38H67.76c-17.64,0-31.94,14.3-31.94,31.94
	v60.14C36.71,123.39,40.8,118.55,46.31,114.72"/>
<path class="st0" d="M156.78,75c0,0-11.97-2.87-12.21-14.12c-0.24-11.25,13.64-20.58,24.41-15.08c10.77,5.51,18.98,9.33,31.37,8.28
	c-10.53,3.59-22.04,0.58-29.22-0.62C163.96,52.27,153.19,59.92,156.78,75"/>
<path class="st0" d="M225.25,78.35c-1.6,8.8,4.96,17.59,4.96,17.59c-0.15,0.12-0.3,0.22-0.45,0.34
	c10.21-5.97,19.68-12.75,27.59-18.52c8.69-6.34,19.27-12.56,27.99-17.36l-59.82,14.9C225.5,76.34,225.42,77.36,225.25,78.35"/>
<path class="st0" d="M390.8,34.89h-38.48c1.25,1.34,2.82,5.04,2.09,7.74c-0.9,3.3-7.44,3.02-7.44,3.02s13.41,14.51,24.19,32.98
	c10.77,18.47,16.27,34.3,18.03,46.39s7.26,14.95-3.96,20.89c-11.21,5.94-69.73,28.06-69.73,28.06s-1.94-23.24,9.68-38.73
	c-9.41,4.98-14.66,21.21-13.28,39.19c-4.7-22.13-16.87-38.36-16.87-38.36s9.57,22.4,9.83,35.76c4.22,15.85,13.97,46.23,30.39,63.42
	c3.49,3.66,5.57,8.02,6.37,12.53h47.29c15.05,0,27.25-12.2,27.25-27.25V60.26C416.17,46.25,404.81,34.89,390.8,34.89"/>
<path class="st0" d="M219.38,53.28c1.02,3.22,3.75,8.92,5.2,14.9l36.27-9.47c0,0,0.08,2.76,1.95,4.14c-1.87-2.76-0.91-4.9-0.91-4.9
	l18.37-4.12c-2.24-2.58-4.26-5.62-3.38-7.47c1.77-3.72,6.56-1.59,8.33-0.89c1.77,0.71,2.66-2.83,6.56-3.37
	c2.13-1.42,2.66-3.19,8.51-3.19c0.89-1.77,6.2-3.72,14.53-1.6c8.33,5.14,6.72,18.86,2.77,24.3c-12.84,16.84-14.13,33.12-41.84,49.45
	c-5.89,2.32-14.81,6.17-19.82,9.05c10.84,6.49,9.86-3.87,43.35,6.18c12.86,0,31.12-14.21,51.9-8.76
	c-13.92-24.33-13.03-47.46-18.96-50.42c-5.94-2.97-15.15-4.6-15.15-4.6s9.18-17.69-0.71-23.83c-1.12-1.64,1.46-2.84,1.96-3.8H194.32
	C208.43,37.54,217.99,48.9,219.38,53.28"/>
<path class="st0" d="M180.94,199.88c0,0-22.08-38.93-20.59-56.89c1.5-17.97,10.11-24.7,36.68-29.94
	C165.97,125.39,159.61,143.36,180.94,199.88"/>
<path class="st0" d="M211.75,247.42c0,0-22.66-35.62,19.11-97.18C213.08,186.86,208.28,214.92,211.75,247.42"/>
<path class="st0" d="M174.91,108.77c0,0-9.64-7.12-14.7-33.07c-2.53-12.17,3.9-21.12,14.7-19.98c10.79,1.15,17.45,1.61,17.45,1.61
	s-25.03,2.53-25.95,16.3C167.8,87.41,172.39,103.03,174.91,108.77"/>
<path class="st0" d="M485.5,94.88V79.31h40.2v36.8c-3.91,3.78-9.57,7.11-16.98,9.99c-7.42,2.88-14.92,4.32-22.53,4.32
	c-9.66,0-18.08-2.03-25.27-6.08c-7.18-4.05-12.58-9.85-16.19-17.39c-3.61-7.54-5.42-15.74-5.42-24.61c0-9.62,2.02-18.17,6.05-25.65
	c4.03-7.48,9.93-13.21,17.71-17.2c5.92-3.07,13.29-4.6,22.12-4.6c11.47,0,20.42,2.4,26.87,7.21c6.45,4.81,10.6,11.46,12.45,19.94
	l-18.52,3.47c-1.3-4.54-3.75-8.12-7.34-10.74c-3.59-2.62-8.08-3.94-13.45-3.94c-8.15,0-14.63,2.58-19.44,7.75
	c-4.81,5.17-7.21,12.83-7.21,23c0,10.96,2.44,19.19,7.31,24.67c4.87,5.48,11.26,8.22,19.15,8.22c3.91,0,7.82-0.77,11.75-2.3
	c3.93-1.53,7.3-3.39,10.11-5.58V94.88H485.5z"/>
<polygon class="st0" points="540.7,128.84 540.7,36.47 609.19,36.47 609.19,52.09 559.35,52.09 559.35,72.57 605.73,72.57 
	605.73,88.14 559.35,88.14 559.35,113.28 610.96,113.28 610.96,128.84 "/>
<polygon class="st0" points="624.33,128.84 624.33,36.47 652.24,36.47 669,99.48 685.57,36.47 713.55,36.47 713.55,128.84 
	696.22,128.84 696.22,56.13 677.89,128.84 659.93,128.84 641.66,56.13 641.66,128.84 "/>
<polygon class="st0" points="729.63,128.84 729.63,36.47 757.54,36.47 774.3,99.48 790.87,36.47 818.85,36.47 818.85,128.84 
	801.52,128.84 801.52,56.13 783.19,128.84 765.23,128.84 746.96,56.13 746.96,128.84 "/>
<path class="st0" d="M918.48,128.84h-20.29l-8.07-20.98H853.2l-7.62,20.98h-19.79l35.98-92.37h19.72L918.48,128.84z M884.14,92.29
	l-12.73-34.28l-12.48,34.28H884.14z"/>
<path class="st0" d="M489.02,212.75v-19.22h44.11v39.38c-8.44,5.76-15.91,9.67-22.4,11.75c-6.49,2.08-14.19,3.12-23.09,3.12
	c-10.96,0-19.9-1.87-26.81-5.61c-6.91-3.74-12.27-9.3-16.07-16.7c-3.8-7.39-5.7-15.88-5.7-25.46c0-10.08,2.08-18.85,6.24-26.31
	c4.16-7.46,10.25-13.12,18.27-16.98c6.26-2.98,14.68-4.47,25.27-4.47c10.21,0,17.84,0.93,22.9,2.77c5.06,1.85,9.26,4.72,12.6,8.6
	c3.34,3.89,5.85,8.81,7.53,14.78l-27.53,4.92c-1.13-3.49-3.05-6.15-5.76-8c-2.71-1.85-6.17-2.77-10.36-2.77
	c-6.26,0-11.25,2.17-14.97,6.52c-3.72,4.35-5.58,11.23-5.58,20.64c0,10,1.88,17.14,5.64,21.42c3.76,4.29,9,6.43,15.72,6.43
	c3.19,0,6.24-0.46,9.14-1.39c2.9-0.92,6.22-2.5,9.96-4.73v-8.7H489.02z"/>
<path class="st0" d="M546.49,200.08c0-15.08,4.2-26.82,12.6-35.22c8.4-8.4,20.1-12.6,35.1-12.6c15.37,0,27.22,4.13,35.54,12.38
	c8.32,8.26,12.48,19.82,12.48,34.69c0,10.8-1.82,19.65-5.45,26.56c-3.63,6.91-8.89,12.29-15.75,16.13
	c-6.87,3.84-15.43,5.76-25.68,5.76c-10.42,0-19.04-1.66-25.86-4.98c-6.83-3.32-12.36-8.57-16.6-15.75
	C548.61,219.87,546.49,210.88,546.49,200.08 M575.03,200.21c0,9.33,1.73,16.03,5.2,20.1c3.47,4.07,8.18,6.11,14.15,6.11
	c6.13,0,10.88-1.99,14.24-5.99c3.36-3.99,5.04-11.15,5.04-21.49c0-8.7-1.76-15.05-5.26-19.06c-3.51-4.01-8.26-6.02-14.27-6.02
	c-5.76,0-10.38,2.04-13.86,6.11C576.77,184.06,575.03,190.8,575.03,200.21"/>
<polygon class="st0" points="657.57,153.84 686.12,153.84 686.12,223.46 730.66,223.46 730.66,246.21 657.57,246.21 "/>
<polygon class="st0" points="743.77,153.84 814.34,153.84 814.34,173.68 772.44,173.68 772.44,189.81 808.23,189.81 808.23,208.47 
	772.44,208.47 772.44,246.21 743.77,246.21 "/>
<polygon class="st0" points="829.9,153.84 856.56,153.84 891.34,204.94 891.34,153.84 918.24,153.84 918.24,246.21 891.34,246.21 
	856.75,195.49 856.75,246.21 829.9,246.21 "/>
<rect class="st1" width="953.13" height="283.46"/>
</svg>
