<?xml version="1.0" encoding="utf-8"?>
<!-- Generator: Adobe Illustrator 26.1.0, SVG Export Plug-In . SVG Version: 6.00 Build 0)  -->
<svg version="1.1" id="Ebene_1" xmlns="http://www.w3.org/2000/svg" xmlns:xlink="http://www.w3.org/1999/xlink" x="0px" y="0px"
	 viewBox="0 0 841.9 595.3" style="enable-background:new 0 0 841.9 595.3;" xml:space="preserve">
<style type="text/css">
	.st0{fill:#507D70;}
	.st1{fill:#C0A777;}
	.st2{fill:#86A8A4;}
	.st3{fill:#E3D09B;}
</style>
<g>
	<path class="st0" d="M113.3,414.2h15.9l21.9,61.2h0.6l20.8-61.2h15.9v111h-15.9v-69.5h-0.8L155,505.9h-8.4L130,455.8h-0.8v69.5
		h-15.9V414.2z"/>
	<path class="st0" d="M207.4,414.2h47.1v15.1h-31.2V462h27.6v14.3h-27.6v33.9h31.7v15.1h-47.6V414.2z"/>
	<path class="st0" d="M318.8,414.2v15.1h-19.7v95.9h-15.9v-95.9h-19.7v-15.1H318.8z"/>
	<path class="st0" d="M379.1,414.2v12.2L345.8,511h32.5v14.3h-49.2v-14l32.5-82.8h-30.3v-14.3H379.1z"/>
	<path class="st0" d="M395.8,414.2h47.1v15.1h-31.2V462h27.6v14.3h-27.6v33.9h31.7v15.1h-47.6V414.2z"/>
	<path class="st0" d="M474.3,414.2l26.5,69.8v-69.8h15.9v111h-15.9l-26.5-69.8v69.8h-15.9v-111H474.3z"/>
	<path class="st0" d="M551.5,414.2V462h21.4v-47.7h15.9v111h-15.9v-49h-21.4v49h-15.9v-111H551.5z"/>
	<path class="st0" d="M607.1,443.4c0-8.4,0.6-16.5,8.2-23.6c4.8-4.4,11.3-7.1,19.5-7.1s14.7,2.7,19.5,7.1c7.6,7.1,8.2,15.2,8.2,23.6
		V496c0,8.4-0.6,16.5-8.2,23.6c-4.8,4.4-11.3,7.1-19.5,7.1s-14.7-2.7-19.5-7.1c-7.6-7.1-8.2-15.2-8.2-23.6V443.4z M646.8,441
		c0-3.3-0.3-6.7-3.3-9.7c-1.7-1.7-4.6-3.2-8.6-3.2s-6.8,1.4-8.6,3.2c-3,3-3.3,6.3-3.3,9.7v57.4c0,3.3,0.3,6.7,3.3,9.7
		c1.7,1.7,4.6,3.2,8.6,3.2s6.8-1.4,8.6-3.2c3-3,3.3-6.3,3.3-9.7V441z"/>
	<path class="st0" d="M681,414.2h48.2v15.1h-32.4v33.3h28.4v15.1h-28.4v47.6H681V414.2z"/>
</g>
<polygon class="st1" points="276.3,67.9 358.7,150.3 466.8,150.3 549.3,67.9 "/>
<polygon class="st2" points="350.7,266.5 350.7,158.4 268.2,76 268.2,348.9 "/>
<polygon class="st0" points="466.8,274.6 358.7,274.6 276.3,357 549.3,357 "/>
<polygon class="st3" points="474.9,158.4 474.9,266.5 557.3,348.9 557.3,76 "/>
</svg>
